PathFileType	4	(X/Y/Z)	output.trc
DataRate	CameraRate	NumFrames	NumMarkers	Units	OrigDataRate	OrigDataStartFrame	OrigNumFrames
30	30	16	17	m	30	817	1089
Frame#	Time	root		right_hip		right_knee		right_ankle		left_hip		left_knee		left_ankle		torso		thorax		neck		head		left_shoulder		left_elbow		left_wrist		right_shoulder		right_elbow		right_wrist
		X1	Y1	Z1	X2	Y2	Z2	X3	Y3	Z3	X4	Y4	Z4	X5	Y5	Z5	X6	Y6	Z6	X7	Y7	Z7	X8	Y8	Z8	X9	Y9	Z9	X10	Y10	Z10	X11	Y11	Z11	X12	Y12	Z12	X13	Y13	Z13	X14	Y14	Z14	X15	Y15	Z15	X16	Y16	Z16	X17	Y17	Z17

817.0	27.200000	0.000157	-0.000020	0.828558	-0.002572	0.081128	0.815278	-0.022286	0.082499	0.433396	-0.148390	0.145076	0.000000	0.002566	-0.081133	0.841858	0.030923	0.008416	0.459034	-0.060140	0.043088	0.027952	-0.000318	-0.014608	1.064953	0.023014	-0.019658	1.332834	0.135880	-0.028848	1.439608	0.161315	-0.006231	1.488077	-0.008941	-0.091078	1.286760	-0.088920	-0.095513	1.033355	-0.043735	-0.072675	0.801326	0.019681	0.060575	1.280861	-0.005421	0.157621	1.015514	0.047662	0.181857	0.802086
818.0	27.233333	0.000159	-0.000020	0.824494	0.000015	0.080156	0.810853	-0.024980	0.084412	0.429296	-0.155266	0.149873	0.000000	-0.000019	-0.080161	0.838157	0.030724	0.003692	0.454092	-0.063816	0.041969	0.022304	-0.000830	-0.013930	1.060378	0.019712	-0.019292	1.327927	0.125639	-0.029411	1.440258	0.151935	-0.002059	1.486294	-0.014220	-0.088041	1.280412	-0.093891	-0.090278	1.027804	-0.039289	-0.066497	0.794865	0.020267	0.058906	1.273756	0.000676	0.152054	1.009545	0.058196	0.180828	0.796943
819.0	27.266667	0.000159	-0.000022	0.821094	0.003076	0.080491	0.807740	-0.028029	0.083622	0.429310	-0.162096	0.143980	0.000000	-0.003081	-0.080496	0.834474	0.026863	-0.000409	0.453867	-0.068864	0.037235	0.022155	-0.002033	-0.012968	1.057758	0.015957	-0.020870	1.324106	0.113223	-0.035707	1.438650	0.138524	-0.002574	1.487570	-0.022960	-0.087407	1.275984	-0.101808	-0.083283	1.025103	-0.042008	-0.056336	0.792145	0.022859	0.056264	1.268277	0.002077	0.145802	1.004910	0.060651	0.177663	0.794857
820.0	27.300000	0.000159	-0.000024	0.819241	0.004852	0.078922	0.805923	-0.034037	0.083808	0.430872	-0.166095	0.139214	0.000000	-0.004857	-0.078927	0.832584	0.026945	-0.005287	0.454359	-0.071673	0.025821	0.020787	-0.001426	-0.011442	1.055699	0.015113	-0.022439	1.321273	0.102845	-0.041063	1.440489	0.125064	-0.002043	1.488397	-0.028294	-0.085510	1.271644	-0.107313	-0.074550	1.021907	-0.044283	-0.044199	0.788609	0.028348	0.052015	1.264270	0.009599	0.140557	1.001160	0.063867	0.175894	0.794875
821.0	27.333333	0.000159	-0.000025	0.827066	0.005025	0.079572	0.813989	-0.031089	0.083005	0.434320	-0.161462	0.132400	0.000000	-0.005025	-0.079574	0.840166	0.023274	-0.005746	0.456016	-0.077164	0.029582	0.022748	-0.002863	-0.012651	1.062420	0.011172	-0.025824	1.327322	0.099177	-0.043415	1.450044	0.116640	-0.003959	1.496484	-0.033197	-0.088559	1.275416	-0.116654	-0.076640	1.025221	-0.053417	-0.052914	0.788894	0.026776	0.048214	1.266752	0.016139	0.133629	1.001766	0.075709	0.169797	0.796263
822.0	27.366667	0.000159	-0.000025	0.820069	0.008488	0.079490	0.807257	-0.031203	0.083492	0.431535	-0.166750	0.131159	0.000000	-0.008488	-0.079492	0.832907	0.016496	-0.010297	0.453463	-0.084184	0.020000	0.016541	-0.002286	-0.012939	1.056734	0.010164	-0.027861	1.320945	0.088391	-0.053043	1.446435	0.104105	-0.007250	1.495402	-0.041895	-0.087167	1.268472	-0.134637	-0.067804	1.022270	-0.071984	-0.046053	0.785216	0.033610	0.045051	1.259527	0.025909	0.127742	0.995538	0.085516	0.161796	0.792018
823.0	27.400000	0.000160	-0.000025	0.817396	0.013202	0.078230	0.804430	-0.029707	0.080938	0.431544	-0.166978	0.123056	0.000000	-0.013200	-0.078231	0.830388	0.011265	-0.010132	0.453189	-0.093180	0.020275	0.019560	-0.003209	-0.011513	1.054393	0.006935	-0.029030	1.317687	0.078702	-0.059166	1.445052	0.091379	-0.006509	1.493593	-0.050849	-0.086627	1.266199	-0.145587	-0.067491	1.018750	-0.085904	-0.049313	0.781015	0.037128	0.042688	1.256015	0.033042	0.122970	0.990585	0.095748	0.151745	0.794479
824.0	27.433333	0.000163	-0.000026	0.820437	0.019495	0.079162	0.805101	-0.020660	0.074315	0.429934	-0.161530	0.115227	0.000000	-0.019489	-0.079161	0.835794	0.007161	-0.015809	0.453948	-0.106717	0.017969	0.022182	-0.001777	-0.010879	1.057240	0.009477	-0.030804	1.319211	0.070195	-0.066666	1.448999	0.081593	-0.007623	1.498181	-0.056296	-0.087932	1.268843	-0.155367	-0.070357	1.020430	-0.100557	-0.060508	0.780392	0.047787	0.040754	1.254841	0.045082	0.117338	0.986803	0.103184	0.135090	0.790986
825.0	27.466667	0.000165	-0.000026	0.814629	0.022905	0.082141	0.800077	-0.008509	0.073048	0.428652	-0.165091	0.110859	0.000000	-0.022896	-0.082138	0.829200	0.004827	-0.025749	0.450713	-0.110669	0.007292	0.019778	-0.001989	-0.011469	1.052405	0.008464	-0.030916	1.314418	0.064682	-0.071701	1.445728	0.074377	-0.009139	1.496606	-0.062556	-0.089054	1.265213	-0.166896	-0.069245	1.019086	-0.120510	-0.060535	0.777059	0.051653	0.043518	1.249025	0.050674	0.121065	0.980773	0.112647	0.138043	0.788756
826.0	27.500000	0.000170	-0.000028	0.802777	0.028657	0.083022	0.788574	0.008218	0.059509	0.422823	-0.171409	0.101145	0.000000	-0.028643	-0.083016	0.816996	0.004169	-0.036818	0.448453	-0.109013	-0.001054	0.011682	-0.002387	-0.009534	1.040262	0.006937	-0.026869	1.302210	0.057914	-0.072979	1.438732	0.065229	-0.000456	1.484985	-0.069492	-0.085415	1.254830	-0.179703	-0.059943	1.011525	-0.139936	-0.059534	0.766403	0.055589	0.051443	1.234539	0.057766	0.140585	0.973458	0.124723	0.155628	0.783075
827.0	27.533333	0.000173	-0.000028	0.793324	0.032367	0.081993	0.778325	0.021734	0.054590	0.419277	-0.162753	0.099857	0.000000	-0.032350	-0.081985	0.808334	0.003941	-0.046065	0.444667	-0.113554	-0.004537	0.009894	-0.000646	-0.008924	1.032536	0.009249	-0.025528	1.294371	0.052918	-0.075072	1.436322	0.058728	0.003151	1.479150	-0.072495	-0.081634	1.248217	-0.188282	-0.050190	1.006421	-0.164288	-0.053035	0.761565	0.063726	0.051219	1.225645	0.069696	0.140714	0.963272	0.140123	0.148659	0.780110
828.0	27.566667	0.000171	-0.000031	0.792595	0.036689	0.077614	0.778036	0.027396	0.055333	0.423055	-0.130241	0.107863	0.000000	-0.036670	-0.077605	0.807160	-0.003546	-0.051928	0.447900	-0.121295	-0.015350	0.007432	-0.000326	-0.008900	1.032376	0.013193	-0.027049	1.293201	0.052061	-0.080928	1.436442	0.055868	0.001031	1.482069	-0.076561	-0.076239	1.247234	-0.198971	-0.033987	1.011276	-0.180138	-0.038583	0.764052	0.075809	0.045675	1.223436	0.084211	0.140129	0.963654	0.144991	0.143557	0.773591
829.0	27.600000	0.000171	-0.000031	0.792794	0.040930	0.074038	0.777704	0.032268	0.057080	0.420557	-0.101637	0.127163	0.000000	-0.040910	-0.074028	0.807885	-0.009875	-0.049869	0.448902	-0.124592	-0.005110	0.009932	0.000870	-0.010001	1.033161	0.018519	-0.030723	1.293559	0.056914	-0.088502	1.437553	0.058876	-0.001091	1.483971	-0.079817	-0.078269	1.249232	-0.205272	-0.036048	1.010340	-0.193272	-0.040156	0.763968	0.089611	0.041354	1.226718	0.094735	0.144491	0.970472	0.153099	0.146975	0.766023
830.0	27.633333	0.000170	-0.000034	0.792226	0.044879	0.069847	0.779176	0.038116	0.054846	0.422961	-0.075500	0.137868	0.000000	-0.044859	-0.069838	0.805277	-0.018381	-0.049532	0.447969	-0.127712	0.007005	0.007803	0.000594	-0.010357	1.033017	0.016398	-0.032956	1.292967	0.058474	-0.092895	1.438837	0.059684	-0.000238	1.483823	-0.087143	-0.076960	1.247289	-0.211692	-0.029758	1.010541	-0.206807	-0.032714	0.765338	0.094356	0.037478	1.230028	0.104620	0.148074	0.977424	0.158235	0.149060	0.765673
831.0	27.666667	0.000169	-0.000034	0.794685	0.048217	0.068489	0.781211	0.047068	0.057917	0.420857	-0.050717	0.152612	0.000000	-0.048201	-0.068482	0.808159	-0.027136	-0.046921	0.447357	-0.131739	0.010657	0.007789	0.003726	-0.009943	1.035767	0.023963	-0.035339	1.295644	0.065194	-0.098088	1.438411	0.066071	-0.006279	1.484567	-0.085378	-0.079242	1.251278	-0.212699	-0.036096	1.013061	-0.213463	-0.039648	0.770635	0.106912	0.035612	1.236079	0.113859	0.151664	0.984262	0.167471	0.152487	0.765616
832.0	27.700000	0.000170	-0.000036	0.792032	0.052391	0.066774	0.779163	0.050112	0.062755	0.416166	-0.036122	0.175437	0.000000	-0.052375	-0.066766	0.804901	-0.033667	-0.048651	0.439959	-0.132743	0.010361	0.003933	0.005762	-0.009888	1.033619	0.027013	-0.037669	1.293375	0.071060	-0.099562	1.435354	0.072605	-0.006687	1.480236	-0.086112	-0.079649	1.247925	-0.215294	-0.036432	1.009721	-0.218821	-0.035799	0.767974	0.114380	0.033143	1.238720	0.125019	0.151268	0.987381	0.175710	0.148793	0.763876
